<?xml version="1.0" encoding="utf-8"?>
<!-- Generator: Adobe Illustrator 23.0.2, SVG Export Plug-In . SVG Version: 6.00 Build 0)  -->
<svg version="1.1" id="Layer_1" xmlns="http://www.w3.org/2000/svg" xmlns:xlink="http://www.w3.org/1999/xlink" x="0px" y="0px"
	 viewBox="0 0 177 50" style="enable-background:new 0 0 177 50;" xml:space="preserve">
<style type="text/css">
	.st0{display:none;}
	.st1{display:inline;}
	.st2{fill:#001A49;}
	.st3{display:inline;fill:#001A49;}
	.st4{display:inline;fill:#00509D;}
	.st5{fill:#003B5C;}
	.st6{fill:#97999B;}
	.st7{fill:#00B2A9;}
</style>
<g class="st0">
	<g class="st1">
		<path class="st2" d="M92.4,24.1v-0.6c0-0.8-0.3-1.2-0.7-1.2c-0.7,0-0.8,0.3-0.8,0.9v4.5c0,0.5,0.2,0.8,0.8,0.8
			c0.7,0,0.8-0.7,0.8-1.3v-0.8h2.1v1.1c0,1.6-0.9,2.6-3.1,2.6c-1.9,0-2.7-1-2.7-2.9v-3.7c0-2,0.9-2.9,2.8-2.9c1.8,0,2.9,0.8,2.9,2.6
			V24h-2.1L92.4,24.1L92.4,24.1z"/>
		<path class="st2" d="M103.7,27.3c0,0.5,0,1.3-0.7,1.3s-0.8-0.8-0.8-1.3v-3.7c0-0.6,0.1-1.2,0.8-1.2c0.7,0,0.7,0.7,0.7,1.2V27.3z
			 M105.8,23.4c0-1.7-1-2.7-2.9-2.7s-2.9,1-2.9,2.7v3.7c0,2,0.7,3.1,2.9,3.1c2.1,0,2.9-1.1,2.9-3.1V23.4z"/>
		<path class="st2" d="M113.5,22.6c1,0,1.5,0,1.5,1.1c0,0.6-0.1,1.1-0.8,1.1h-0.7V22.6z M113.5,26.4h0.7c0.5,0,0.7,0.4,0.7,1
			c0.1,0.6,0,1.3,0,2.1c0,0.2,0.1,0.3,0.1,0.5h2.3v-0.1c-0.1-0.1-0.2-0.2-0.2-0.3c-0.1-0.6-0.1-2.1-0.2-2.9c0-0.6-0.5-1-1-1.2l0,0
			c0.9-0.4,1.1-1.1,1.1-2.1c0-1.8-0.9-2.5-2.6-2.5h-3.1v9h2.1L113.5,26.4L113.5,26.4z"/>
		<path class="st2" d="M124.9,22.6h0.2c0.3,0,0.6,0,0.8,0.1c0.4,0.2,0.4,0.7,0.4,1s0,0.7-0.3,0.9c-0.3,0.3-0.8,0.2-1.2,0.2
			L124.9,22.6L124.9,22.6z M124.9,30v-3.5c0.8,0,1.6,0.1,2.4-0.3c1-0.4,1.2-1.5,1.2-2.5c0-0.7-0.1-1.4-0.6-2
			c-0.6-0.7-1.8-0.7-2.6-0.7h-2.5v9H124.9z"/>
		<path class="st2" d="M137.5,27.3c0,0.5,0,1.3-0.7,1.3s-0.8-0.8-0.8-1.3v-3.7c0-0.6,0.1-1.2,0.8-1.2s0.7,0.7,0.7,1.2V27.3z
			 M139.6,23.4c0-1.7-1-2.7-2.9-2.7s-2.9,1-2.9,2.7v3.7c0,2,0.7,3.1,2.9,3.1c2.1,0,2.9-1.1,2.9-3.1V23.4z"/>
		<path class="st2" d="M147.2,22.6c1,0,1.5,0,1.5,1.1c0,0.6-0.1,1.1-0.8,1.1h-0.7V22.6z M147.2,26.4h0.7c0.5,0,0.7,0.4,0.7,1
			c0.1,0.6,0,1.3,0,2.1c0,0.2,0.1,0.3,0.1,0.5h2.3v-0.1c-0.1-0.1-0.2-0.2-0.2-0.3c-0.1-0.6-0.1-2.1-0.2-2.9c0-0.6-0.5-1-1-1.2l0,0
			c0.9-0.4,1.1-1.1,1.1-2.1c0-1.8-0.9-2.5-2.6-2.5H145v9h2.1L147.2,26.4L147.2,26.4z"/>
		<path class="st2" d="M159.8,26.6h-1.2l0.6-4l0,0L159.8,26.6z M158.1,30l0.3-1.8h1.7l0.3,1.8h2.1l-2-9H158l-2,9H158.1z"/>
		<path class="st2" d="M166.7,21h5.5v1.8h-1.7V30h-2.1v-7.2h-1.7V21z"/>
		<path class="st2" d="M177.7,30v-9h2.1v9H177.7z"/>
		<path class="st2" d="M189.1,27.3c0,0.5,0,1.3-0.7,1.3s-0.8-0.8-0.8-1.3v-3.7c0-0.6,0.1-1.2,0.8-1.2s0.7,0.7,0.7,1.2V27.3z
			 M191.2,23.4c0-1.7-1-2.7-2.9-2.7s-2.9,1-2.9,2.7v3.7c0,2,0.7,3.1,2.9,3.1c2.1,0,2.9-1.1,2.9-3.1V23.4z"/>
		<path class="st2" d="M198.6,24.9L198.6,24.9l0.2,5.1h-2v-9h2.2l1.6,5l0,0l-0.2-5h2v9h-2.2L198.6,24.9z"/>
		<path class="st2" d="M217.2,27v0.6c0,0.5,0.2,1,0.8,1c0.5,0,0.7-0.4,0.7-0.9c0-0.8-0.6-1-1.2-1.4c-0.6-0.4-1.2-0.7-1.6-1.2
			c-0.4-0.5-0.6-1-0.6-1.8c0-1.7,1-2.6,2.7-2.6c1.8,0,2.8,1.2,2.7,2.9h-1.9c0-0.5,0-1.3-0.7-1.3c-0.4,0-0.7,0.2-0.7,0.6
			c-0.1,0.5,0.2,0.8,0.6,1.1c0.8,0.5,1.5,0.8,2,1.3s0.8,1.1,0.8,2.2c0,1.7-1,2.7-2.7,2.7c-1.9,0-2.8-1.1-2.8-2.3v-1L217.2,27
			L217.2,27z"/>
		<path class="st2" d="M226.2,30v-9h4.8v1.8h-2.7v1.7h2.6v1.8h-2.6v1.9h2.9V30H226.2z"/>
		<path class="st2" d="M238.9,22.6c1,0,1.5,0,1.5,1.1c0,0.6-0.1,1.1-0.8,1.1h-0.7V22.6z M238.9,26.4h0.7c0.5,0,0.7,0.4,0.7,1
			c0.1,0.6,0,1.3,0,2.1c0,0.2,0.1,0.3,0.1,0.5h2.3v-0.1c-0.1-0.1-0.2-0.2-0.2-0.3c-0.1-0.6-0.1-2.1-0.2-2.9c0-0.6-0.5-1-1-1.2l0,0
			c0.9-0.4,1.1-1.1,1.1-2.1c0-1.8-0.9-2.5-2.6-2.5h-3.1v9h2.1L238.9,26.4L238.9,26.4z"/>
		<path class="st2" d="M249.6,30l-2-9h2.1l1.1,6.3l0,0l1.1-6.3h2.1l-2,9H249.6z"/>
		<path class="st2" d="M259.4,30v-9h2.1v9H259.4z"/>
		<path class="st2" d="M270.7,24.1v-0.6c0-0.8-0.3-1.2-0.7-1.2c-0.7,0-0.8,0.3-0.8,0.9v4.5c0,0.5,0.2,0.8,0.8,0.8
			c0.7,0,0.8-0.7,0.8-1.3v-0.8h2.1v1.1c0,1.6-0.9,2.6-3.1,2.6c-1.9,0-2.7-1-2.7-2.9v-3.7c0-2,0.9-2.9,2.8-2.9c1.8,0,2.9,0.8,2.9,2.6
			V24h-2.1L270.7,24.1L270.7,24.1z"/>
		<path class="st2" d="M278.5,30v-9h4.8v1.8h-2.7v1.7h2.6v1.8h-2.6v1.9h2.9V30H278.5z"/>
		<path class="st2" d="M300.2,24.1v-0.6c0-0.8-0.3-1.2-0.7-1.2c-0.7,0-0.8,0.3-0.8,0.9v4.5c0,0.5,0.2,0.8,0.8,0.8
			c0.7,0,0.8-0.7,0.8-1.3v-0.8h2.1v1.1c0,1.6-0.9,2.6-3.1,2.6c-1.9,0-2.7-1-2.7-2.9v-3.7c0-2,0.9-2.9,2.8-2.9c1.8,0,2.9,0.8,2.9,2.6
			V24h-2.1L300.2,24.1L300.2,24.1z"/>
		<path class="st2" d="M311.4,27.3c0,0.5,0,1.3-0.7,1.3s-0.8-0.8-0.8-1.3v-3.7c0-0.6,0.1-1.2,0.8-1.2c0.7,0,0.7,0.7,0.7,1.2V27.3z
			 M313.6,23.4c0-1.7-1-2.7-2.9-2.7s-2.9,1-2.9,2.7v3.7c0,2,0.7,3.1,2.9,3.1c2.1,0,2.9-1.1,2.9-3.1V23.4z"/>
		<path class="st2" d="M319.2,30v-9h3l1.1,5.3l0,0l1.1-5.3h3v9h-2l0.2-7.1l0,0l-1.5,7.1h-1.6l-1.5-7.1l0,0l0.2,7.1H319.2z"/>
		<path class="st2" d="M335.3,22.6h0.2c0.3,0,0.6,0,0.8,0.1c0.4,0.2,0.4,0.7,0.4,1s0,0.7-0.3,0.9c-0.3,0.3-0.8,0.2-1.2,0.2v-2.2
			H335.3z M335.3,30v-3.5c0.8,0,1.6,0.1,2.4-0.3c1-0.4,1.2-1.5,1.2-2.5c0-0.7-0.1-1.4-0.6-2c-0.6-0.7-1.8-0.7-2.6-0.7h-2.5v9H335.3z
			"/>
		<path class="st2" d="M347.3,26.6h-1.2l0.6-4l0,0L347.3,26.6z M345.6,30l0.3-1.8h1.7l0.3,1.8h2.1l-2-9h-2.5l-2,9H345.6z"/>
		<path class="st2" d="M357,24.9L357,24.9l0.2,5.1h-2v-9h2.2l1.6,5l0,0l-0.2-5h2v9h-2.2L357,24.9z"/>
		<path class="st2" d="M369.2,23.9L369.2,23.9l1.1-2.9h2.1l-2.2,5.2V30h-2.1v-3.8L366,21h2.1L369.2,23.9z"/>
		<path class="st2" d="M375.6,21.7c0-0.6,0.5-1.1,1.1-1.1s1.1,0.5,1.1,1.1s-0.5,1.1-1.1,1.1C376.1,22.8,375.6,22.4,375.6,21.7z
			 M376.7,23c0.7,0,1.3-0.5,1.3-1.3c0-0.7-0.6-1.3-1.3-1.3c-0.7,0-1.3,0.5-1.3,1.3C375.4,22.5,376,23,376.7,23z M376.4,21.8h0.3
			l0.4,0.6h0.3l-0.4-0.7c0.2,0,0.4-0.1,0.4-0.4s-0.2-0.4-0.5-0.4h-0.6v1.5h0.2L376.4,21.8L376.4,21.8z M376.4,21.7v-0.5h0.3
			c0.2,0,0.3,0,0.3,0.2s-0.2,0.2-0.4,0.2L376.4,21.7L376.4,21.7z"/>
	</g>
	<path class="st3" d="M21.9,10l0.2-1.1c0.3-1.5-0.1-2.2-0.8-2.2c-1.3,0-1.7,0.7-1.9,1.8L17.5,17c-0.2,1,0.1,1.5,1.1,1.5
		c1.4,0,1.8-1.4,2-2.5l0.3-1.6h4l-0.4,2.1c-0.6,3-2.8,5-6.9,5c-3.7,0-4.7-2-4-5.5l1.5-7.1c0.8-3.7,2.9-5.5,6.6-5.5
		c3.4,0,5.2,1.5,4.4,5L25.9,10H21.9z"/>
	<path class="st3" d="M29.8,15.4l-0.3,1.2c-0.2,1-0.1,1.9,1.2,1.9c0.9,0,1.5-0.8,1.7-1.7c0.3-1.4-0.8-2-1.7-2.6
		c-1.1-0.7-2-1.4-2.6-2.2c-0.5-0.9-0.8-1.9-0.4-3.4c0.7-3.2,3-4.9,6.1-4.9c3.5,0,4.8,2.3,3.9,5.6H34c0.2-1,0.5-2.4-0.8-2.5
		c-0.8-0.1-1.4,0.4-1.6,1.1c-0.3,1,0.1,1.6,0.8,2.1c1.3,1,2.5,1.6,3.2,2.4c0.8,0.9,1.1,2,0.6,4.1c-0.7,3.3-2.9,5.1-6.3,5.1
		c-3.7,0-4.8-2.1-4.3-4.3l0.4-1.8L29.8,15.4L29.8,15.4z"/>
	<path class="st3" d="M46.1,10l0.2-1.1c0.3-1.5-0.1-2.2-0.8-2.2c-1.3,0-1.7,0.7-1.9,1.8L41.7,17c-0.2,1,0.1,1.5,1.1,1.5
		c1.4,0,1.8-1.4,2-2.5l0.3-1.6h4l-0.4,2.1c-0.6,3-2.8,5-6.9,5c-3.7,0-4.7-2-4-5.5l1.5-7.1c0.8-3.7,2.9-5.5,6.6-5.5
		c3.4,0,5.2,1.5,4.4,5L50.1,10H46.1z"/>
	<path class="st3" d="M63.6,16.6c6.6,1.3,9.9,5.6,10.1,9.9C74,34.7,59.8,41.9,42,42.4C24.3,43,9.7,36.7,9.4,28.4
		c-0.1-1.9,0.6-3.7,1.9-5.4l26-0.1c-4.5,2-7.4,5-7.1,8c0.5,4.7,8.4,7.7,17.6,6.8c0,0,20.5-1.6,22.3-11.8
		C71.2,20.4,63.6,16.6,63.6,16.6z"/>
	<path class="st4" d="M47.6,23.2H40c0,0-8.3,2.8-7.7,8C32.3,31.2,35.5,24.8,47.6,23.2z"/>
	<path class="st4" d="M67.2,29.3c0,0,2.6-9.1-10.8-13.5C56.4,15.9,73.6,18.9,67.2,29.3z"/>
	<path class="st4" d="M73.9,32.1c0.8-0.9-6.4,15-37.9,14.3c-23.6-0.5-26.9-14-26.9-14s7.3,12.5,31,11.7
		C62.5,43.3,70.4,35.9,73.9,32.1z"/>
	<path class="st3" d="M50.8,19.4c0-0.6,0.5-1.1,1.1-1.1s1.1,0.5,1.1,1.1s-0.5,1.1-1.1,1.1C51.2,20.5,50.8,20.1,50.8,19.4z
		 M51.8,20.7c0.7,0,1.3-0.5,1.3-1.3c0-0.7-0.6-1.3-1.3-1.3s-1.3,0.5-1.3,1.3S51.1,20.7,51.8,20.7z M51.6,19.5h0.3l0.4,0.6h0.3
		L52,19.5c0.2,0,0.4-0.1,0.4-0.4s-0.2-0.4-0.5-0.4h-0.6v1.5h0.2L51.6,19.5L51.6,19.5z M51.6,19.4v-0.5h0.3c0.2,0,0.3,0,0.3,0.2
		s-0.2,0.2-0.4,0.2L51.6,19.4L51.6,19.4z"/>
</g>
<g>
	<g>
		<g>
			<g>
				<path class="st5" d="M126.5,30.9c0-1,0.3-1.4,1.3-1.4h2.6l1.3,4.6c0.3,0.3,2.2,1.6,4.9,1.6c3.5,0,5.1-1.8,5.1-3.8
					c0-1.9-1.4-3.4-4.3-4.3c-0.8-0.2-2-0.6-2.7-0.8c-4.8-1.4-8.3-3.6-8.3-8.5c0-5.9,4.8-8.4,10.2-8.4c5.8,0,8.9,2.1,9.8,2.7v5.9
					c0,1.1-0.4,1.4-1.3,1.4h-2.6l-1.4-4.8c-0.4-0.2-1.9-1.1-4.3-1.1c-2.9,0-4.8,1.2-4.8,3.6s2.4,3.6,5.4,4.5
					c0.9,0.3,1.7,0.5,2.3,0.7c4.4,1.3,7.8,3.8,7.8,8.3c0,6.6-5.2,8.6-11,8.6s-9.2-2.3-10-2.9V30.9z M122.6,32.1
					c0-0.5-0.3-0.9-0.8-0.9s-0.9,0.4-1.4,1c-0.6,0.6-2.8,3.2-7,3.2c-4.4,0-8.4-4.1-8.4-10.6c0-6,3-10.8,8.4-10.8
					c1.8,0,3.4,0.5,3.9,0.7l1.5,5.1h2.5c0.8,0,1.3-0.2,1.3-1.4v-5.9c-1.1-0.8-4.1-2.7-9.2-2.7c-8.8,0-14.7,5.5-14.7,14.8
					c0,9.9,6,14.8,14.2,14.8c5.2,0,8.5-2.1,9.7-2.9V32.1z M174.4,32.1c0-0.5-0.3-0.9-0.8-0.9s-0.9,0.4-1.4,1c-0.6,0.6-2.8,3.2-7,3.2
					c-4.4,0-8.4-4.1-8.4-10.6c0-6,3-10.8,8.4-10.8c1.8,0,3.4,0.5,3.9,0.7l1.5,5.1h2.5c0.8,0,1.3-0.2,1.3-1.4v-5.9
					c-1.1-0.8-4.1-2.7-9.2-2.7c-8.8,0-14.7,5.5-14.7,14.8c0,9.9,6,14.8,14.2,14.8c5.2,0,8.5-2.1,9.7-2.9V32.1z"/>
				<g>
					<path class="st5" d="M24.2,11.4c6.7,0,10.5,4.5,11.7,6.7c1.1-2.8,3.6-7.3,4.6-8.8c-1.7-1.9-7.4-7-16.3-7
						C11.5,2.4,1.6,12.7,1.6,25c0,13.4,10.8,21.6,19.6,22.4v-9.2c-4.7-1-10.6-5.7-10.6-13.3C10.7,17.5,16.8,11.4,24.2,11.4z"/>
					<path class="st6" d="M69.1,2.6v9.2c4.7,1,10.6,5.7,10.6,13.3c0,7.5-6.1,13.6-13.6,13.6c-6.7,0-10.5-4.5-11.7-6.7
						c-1.1,2.8-3.6,7.3-4.6,8.8c1.7,1.9,7.4,7,16.3,7c12.8,0,22.6-10.4,22.6-22.6C88.7,11.6,77.9,3.4,69.1,2.6z"/>
					<path class="st7" d="M63.1,11.6V2.5C49.3,3.8,44.7,14.7,41,23.2c-4.6,10.4-7.4,13.7-13.7,15.1v9.2c13.4-1.4,18.4-12.2,22-20.7
						C53,18.2,55.8,12.7,63.1,11.6z"/>
				</g>
			</g>
		</g>
	</g>
	<path class="st6" d="M84.1,45c0-1,0.7-1.7,1.7-1.7c0.9,0,1.7,0.7,1.7,1.7s-0.7,1.7-1.7,1.7C84.8,46.8,84.1,46,84.1,45z M85.7,47.1
		c1.1,0,2.1-0.9,2.1-2.1c0-1.2-1-2-2.1-2s-2.1,0.9-2.1,2C83.7,46.2,84.6,47.1,85.7,47.1z M85.3,45.2h0.4l0.6,1h0.4l-0.7-1
		c0.3,0,0.6-0.2,0.6-0.7s-0.3-0.7-0.8-0.7h-0.9v2.4h0.4V45.2z M85.3,44.9v-0.7h0.5c0.2,0,0.5,0.1,0.5,0.3c0,0.4-0.3,0.4-0.6,0.4
		H85.3z"/>
</g>
</svg>
